<?xml version="1.0" encoding="UTF-8"?>
<svg width="771px" height="610px" viewBox="0 0 771 610" version="1.1" xmlns="http://www.w3.org/2000/svg" xmlns:xlink="http://www.w3.org/1999/xlink">
    <!-- Generator: Sketch 48.2 (47327) - http://www.bohemiancoding.com/sketch -->
    <title>Illustration</title>
    <desc>Created with Sketch.</desc>
    <defs>
        <polygon id="path-1" points="0.668477185 0.768382089 17.8234551 0.768382089 17.8234551 10.660008 0.668477185 10.660008 0.668477185 0.768382089"></polygon>
    </defs>
    <g id="blood-donation-landing" stroke="none" stroke-width="1" fill="none" fill-rule="evenodd" transform="translate(-780.000000, -288.000000)">
        <g id="Illustration" transform="translate(780.000000, 288.000000)">
            <g id="Truck" transform="translate(254.000000, 0.000000)">
                <polygon id="Fill-56" fill="#453560" opacity="0.099999994" points="358.571195 482.210806 14.0396546 284.39605 177.194326 190.882791 516.312636 387.152289"></polygon>
                <g id="Group-9" transform="translate(0.000000, 4.582543)">
                    <polygon id="Fill-63" fill="#A85A7D" points="310.657182 103.198529 310.657182 281.124159 179.405083 359.777139 179.405083 181.852282"></polygon>
                    <polygon id="Fill-61" fill="#F995C2" points="131.899555 0.121731852 0.647455929 78.7747126 179.404696 181.852205 310.656795 103.198452"></polygon>
                    <polygon id="Fill-67" fill="#E885AD" points="0.647455929 256.700342 179.404696 359.777062 179.404696 181.852205 0.647455929 78.7747126"></polygon>
                    <polygon id="Fill-73" fill="#FFC281" points="0.529696314 143.009756 179.405237 246.956794 179.405237 231.487989 0.529696314 127.540951"></polygon>
                    <polygon id="Fill-77" fill="#FFE6DB" points="114.354377 190.672073 99.5930589 182.160407 99.5930589 165.135531 80.4569281 154.100946 80.4569281 171.12505 65.6956096 162.614157 65.6956096 184.681781 80.4569281 193.193447 80.4569281 210.219867 99.5930589 221.254452 99.5930589 204.228032 114.354377 212.739697"></polygon>
                    <polygon id="Fill-148" fill="#FFE6DB" points="169.376804 73.5391346 182.64583 81.1905213 170.859817 87.9870346 183.108982 95.0499719 168.965457 103.205633 156.716292 96.1426962 144.930279 102.938437 131.661252 95.2870506 143.447265 88.4905373 131.1981 81.4276 144.335682 73.8526654 156.588713 80.9132859"></polygon>
                </g>
                <g id="Group-8" transform="translate(178.750000, 139.309298)">
                    <path d="M180.476644,328.74096 C180.476644,328.74096 184.732382,264.928179 159.194087,236.706547 C159.194087,236.706547 100.675368,196.831764 88.968995,183.943024 C88.968995,183.943024 58.1118005,113.383925 51.7258737,108.475547 C45.3430396,103.568713 0.655469308,79.0268203 0.655469308,79.0268203 L0.655469308,225.050307 L180.476644,328.74096 Z" id="Fill-65" fill="#FFE6DB"></path>
                    <path d="M75.6668751,179.343929 C75.6668751,179.343929 51.1948342,122.275921 48.000711,119.822504 C44.8120002,117.372948 18.7401915,102.950532 18.7401915,102.950532 L18.7401915,146.518182 L75.6668751,179.343929 Z" id="Fill-69" fill="#55BDDA"></path>
                    <path d="M290.446573,158.053335 L159.193701,236.707088 C184.728903,264.924858 180.477031,328.726056 180.476257,328.740729 L311.728356,250.087748 C311.728356,250.087748 315.984095,186.274967 290.446573,158.053335" id="Fill-87" fill="#F7DED5"></path>
                    <path d="M182.978205,29.8224886 L51.7261056,108.475469 C58.1120325,113.383848 88.969227,183.942946 88.969227,183.942946 L220.222099,105.289966 C220.222099,105.289966 189.364905,34.7300948 182.978205,29.8224886" id="Fill-89" fill="#FFEFE9"></path>
                    <path d="M176.605268,40.2704 L63.1485563,108.260245 C68.66849,112.502178 95.3426279,173.494726 95.3426279,173.494726 L208.799339,105.506425 C208.799339,105.506425 182.125975,44.5131047 176.605268,40.2704" id="Fill-93" fill="#7BE6FF"></path>
                    <path d="M176.605268,40.2704 L63.1485563,108.260245 C68.66849,112.502178 95.3426279,173.494726 95.3426279,173.494726 L208.799339,105.506425 C208.799339,105.506425 182.125975,44.5131047 176.605268,40.2704" id="Fill-91" fill="#7BE6FF"></path>
                    <path d="M96.4362536,168.032958 C96.4362536,168.032958 75.2998331,119.702111 66.7636142,106.092867 L63.1480924,108.259782 C68.6687993,112.502486 95.3429372,173.495035 95.3429372,173.495035 L208.798875,105.505962 C208.798875,105.505962 208.182628,104.09739 207.123333,101.703436 L96.4362536,168.032958 Z" id="Fill-95" fill="#55BDDA"></path>
                    <path d="M220.222099,105.290043 L88.969227,183.943024 C100.6756,196.831764 159.193546,236.706547 159.193546,236.706547 L290.446418,158.053567 C290.446418,158.053567 231.927699,118.178011 220.222099,105.290043" id="Fill-97" fill="#F7DED5"></path>
                    <path d="M131.907182,0.373530693 L0.655082704,79.0265114 C0.655082704,79.0265114 49.8821586,106.29365 51.7262603,108.475238 L182.978359,29.8222569 C182.978359,29.8222569 143.905827,6.05183572 131.907182,0.373530693" id="Fill-99" fill="#F7DED5"></path>
                    <path d="M290.381701,157.910084 C290.381701,157.910084 284.365367,153.810244 275.819097,147.825359 L144.631174,226.621977 L173.886281,264.957679 L305.074204,186.161061 C301.857657,175.473986 297.182067,165.426328 290.381701,157.910084" id="Fill-101" fill="#FFAF9F"></path>
                    <path d="M159.193778,236.706779 C159.193778,236.706779 153.177445,232.606939 144.631128,226.622054 C144.631128,226.622054 144.413902,246.478746 173.886281,264.957756 C170.669735,254.270681 165.994918,244.223023 159.193778,236.706779" id="Fill-103" fill="#FFC281"></path>
                    <path d="M47.9997832,119.822812 C45.6337659,118.004952 30.6799185,109.6014 23.1148491,105.382635 L23.1148491,144.333043 L72.9604916,173.075166 C66.5034296,158.184771 50.5374526,121.771955 47.9997832,119.822812" id="Fill-105" fill="#7BE6FF"></path>
                </g>
                <polygon id="Fill-71" fill="#FFC281" points="0.529696314 222.651105 310.808885 401.567523 310.808885 386.098717 0.529696314 207.182299"></polygon>
                <polygon id="Fill-75" fill="#FFC281" points="0.529696314 248.598557 310.808885 427.514975 310.808885 412.045397 0.529696314 233.128979"></polygon>
                <g id="Group-6" transform="translate(32.083333, 237.375712)">
                    <path d="M237.366566,161.114267 C237.366566,182.303079 252.258556,208.065888 270.631531,218.660294 C289.008371,229.256244 303.902681,220.670443 303.902681,199.481632 C303.902681,178.288959 289.008371,152.523833 270.631531,141.92711 C252.258556,131.332704 237.366566,139.922367 237.366566,161.114267" id="Fill-79" fill="#82546C"></path>
                    <path d="M0.343445251,24.4396354 C0.343445251,45.6284472 15.2362092,71.3912561 33.6107298,81.9864343 C51.9852505,92.5823847 66.8803341,83.9958114 66.8803341,62.8069995 C66.8803341,41.6150987 51.9852505,15.8492008 33.6107298,5.25402268 C15.2362092,-5.34115548 0.343445251,3.24773457 0.343445251,24.4396354" id="Fill-81" fill="#82546C"></path>
                    <path d="M14.4469955,32.5722841 C14.4469955,44.7775895 23.029607,59.6185614 33.6109618,65.720828 C44.1923166,71.8223223 52.7741549,66.8784207 52.7741549,54.6731152 C52.7741549,42.4662653 44.1923166,27.6229767 33.6109618,21.5207101 C23.029607,15.4192158 14.4469955,20.3654341 14.4469955,32.5722841 M270.631763,158.194647 C281.215437,164.296914 289.797275,179.140202 289.797275,191.347824 C289.797275,203.55313 281.215437,208.497032 270.631763,202.393993 C260.052727,196.293271 251.467796,181.450754 251.467796,169.245449 C251.467796,157.038599 260.052727,152.093925 270.631763,158.194647" id="Fill-83" fill="#995C7F"></path>
                    <path d="M43.4543666,63.53592 C32.8730119,57.4344256 24.2911736,42.5926815 24.2911736,30.3873761 C24.2911736,25.378606 25.7378462,21.595386 28.1719058,19.2933288 C20.2395624,17.4237277 14.4466863,22.5452453 14.4466863,32.5720524 C14.4466863,44.7773578 23.0292977,59.6191019 33.6114257,65.7205963 C39.8519895,69.3192501 45.3951193,69.0729045 48.8946598,65.7638419 C47.1696323,65.3568697 45.3448608,64.6255553 43.4543666,63.53592 M285.91778,202.437779 C282.41824,205.747614 276.874337,205.993187 270.632227,202.394533 C260.052418,196.293811 251.467487,181.450523 251.467487,169.245989 C251.467487,159.21841 257.26191,154.097665 265.19348,155.967266 C262.758647,158.269323 261.311974,162.052543 261.311974,167.061313 C261.311974,179.265846 269.896132,194.109135 280.475941,200.209085 C282.366435,201.299492 284.191979,202.030807 285.91778,202.437779" id="Fill-85" fill="#633B52"></path>
                </g>
                <g id="Group-3" transform="translate(22.000000, 55.907021)">
                    <polygon id="Fill-127" fill="#55BDDA" points="22.0581502 34.7579728 22.0581502 39.66249 43.804632 27.267985 43.804632 22.36424"></polygon>
                    <polygon id="Fill-129" fill="#7BE6FF" points="0.312441576 22.5454082 22.0581502 34.7576639 43.804632 22.3639311 22.0581502 10.1516754"></polygon>
                    <polygon id="Fill-131" fill="#1D8CAA" points="0.312441576 22.5454082 0.312441576 27.2684483 22.0581502 39.6621811 22.0581502 34.7576639"></polygon>
                    <path d="M27.8776247,9.10652134 C24.5280866,11.0379019 19.0978451,11.0379019 15.7475338,9.10652134 C12.3972225,7.17514083 12.3972225,4.04369423 15.7475338,2.11154148 C19.0970719,0.180160969 24.5280866,0.180160969 27.8776247,2.11154148 C31.2271628,4.04369423 31.2271628,7.17514083 27.8776247,9.10652134" id="Fill-133" fill="#FFC281"></path>
                    <path d="M33.6879753,21.8361028 L30.3577674,5.22823824 C30.5441106,6.61750394 29.7206438,8.04383733 27.8773154,9.10644412 C24.5277773,11.0378246 19.0967626,11.0378246 15.7472245,9.10644412 C13.9069889,8.04538182 13.0850685,6.6221374 13.2659992,5.23441618 L10.0827009,21.3040271 C10.0370816,21.4800986 9.99919443,21.6577146 9.9775446,21.8353305 L9.9775446,21.8361028 C9.74016967,23.7481772 10.8798786,25.7065862 13.4152284,27.1684428 C18.0529315,29.8427214 25.5723816,29.8427214 30.2100847,27.1684428 C32.7454345,25.7065862 33.8843702,23.7481772 33.6477685,21.8361028 L33.6879753,21.8361028 Z" id="Fill-135" fill="#FFDCC0"></path>
                </g>
                <g id="Group-2" transform="translate(113.666667, 0.000000)">
                    <polygon id="Fill-137" fill="#55BDDA" points="22.3270259 34.862924 22.3270259 39.7674413 44.0735077 27.3729362 44.0735077 22.4691912"></polygon>
                    <polygon id="Fill-139" fill="#7BE6FF" points="0.58054412 22.6502823 22.3270259 34.8625379 44.0735077 22.4688051 22.3270259 10.2565495"></polygon>
                    <polygon id="Fill-141" fill="#1D8CAA" points="0.58054412 22.6502823 0.58054412 27.3733223 22.3270259 39.7670552 22.3270259 34.8625379"></polygon>
                    <path d="M28.1464231,9.2114726 C24.796885,11.1428531 19.3658703,11.1428531 16.0163322,9.2114726 C12.6660209,7.28009209 12.6660209,4.14864549 16.0163322,2.21649274 C19.3658703,0.285112229 24.7961118,0.285112229 28.1464231,2.21649274 C31.4959612,4.14864549 31.4959612,7.28009209 28.1464231,9.2114726" id="Fill-143" fill="#FFC281"></path>
                    <path d="M33.9568511,21.9409768 L30.6266432,5.33311227 C30.8122132,6.72237798 29.9895196,8.14871136 28.1461911,9.21131815 C24.7958798,11.1434709 19.3656384,11.1434709 16.0161002,9.21131815 C14.1758646,8.15025585 13.3531711,6.72701144 13.534875,5.33929022 L10.3515767,21.4089012 C10.3051842,21.5857449 10.2680702,21.7625886 10.2464203,21.9409768 L10.2456471,21.9409768 L10.2464203,21.9409768 C10.0090454,23.8530512 11.1479812,25.8114603 13.683331,27.2733168 C18.321034,29.9475954 25.8404842,29.9475954 30.4781872,27.2733168 C33.013537,25.8114603 34.153246,23.8530512 33.915871,21.9409768 L33.9568511,21.9409768 Z" id="Fill-146" fill="#FFDCC0"></path>
                    <g id="Group-145" transform="translate(12.835122, 0.000000)">
                        <mask id="mask-2" fill="white">
                            <use xlink:href="#path-1"></use>
                        </mask>
                        <g id="Clip-144"></g>
                    </g>
                </g>
                <g id="Group-4" transform="translate(156.750000, 138.392789)">
                    <polygon id="Fill-107" fill="#55BDDA" points="21.8811786 34.8611547 21.8811786 39.7656719 43.6276604 27.3719391 43.6276604 22.4674219"></polygon>
                    <polygon id="Fill-109" fill="#7BE6FF" points="0.135392667 22.648899 21.8811013 34.8611547 43.627583 22.4674219 21.8811013 10.2551662"></polygon>
                    <polygon id="Fill-111" fill="#1D8CAA" points="0.135392667 22.648899 0.135392667 27.3719391 21.8811013 39.7656719 21.8811013 34.8611547"></polygon>
                    <path d="M27.7005758,9.20970323 C24.3510377,11.1410837 18.920023,11.1410837 15.5704849,9.20970323 C12.2201736,7.27832272 12.2201736,4.14687612 15.5704849,2.21549561 C18.920023,0.283342858 24.3510377,0.283342858 27.7005758,2.21549561 C31.0501139,4.14687612 31.0501139,7.27832272 27.7005758,9.20970323" id="Fill-113" fill="#FFC281"></path>
                    <path d="M33.5110037,21.9392847 L30.1807958,5.33142012 C30.3663658,6.72068583 29.5436722,8.14701922 27.7003438,9.20962601 C24.3508057,11.1417788 18.919791,11.1417788 15.5702529,9.20962601 C13.7300173,8.1485637 12.9073237,6.72531929 13.0890277,5.33759807 L9.90572933,21.407209 C9.85933683,21.5840527 9.82222284,21.7608965 9.80057301,21.9392847 C9.56319808,23.8513591 10.702907,25.8097681 13.2374836,27.2716247 C17.8759599,29.9459033 25.39541,29.9459033 30.0331131,27.2716247 C32.5676897,25.8097681 33.7073986,23.8513591 33.4700237,21.9392847 L33.5110037,21.9392847 Z" id="Fill-115" fill="#FFDCC0"></path>
                </g>
                <g id="Group-5" transform="translate(248.416667, 82.485769)">
                    <polygon id="Fill-117" fill="#55BDDA" points="22.149977 34.9660287 22.149977 39.8705459 43.8964588 27.4768131 43.8964588 22.5722959"></polygon>
                    <polygon id="Fill-119" fill="#7BE6FF" points="0.403495212 22.7538503 22.149977 34.9661059 43.8964588 22.5723731 22.149977 10.3601175"></polygon>
                    <polygon id="Fill-121" fill="#1D8CAA" points="0.403495212 22.7538503 0.403495212 27.4768904 22.149977 39.8706232 22.149977 34.9661059"></polygon>
                    <path d="M27.9694515,9.31496339 C24.6191402,11.2463439 19.1888987,11.2463439 15.8393606,9.31496339 C12.4890493,7.38358288 12.4890493,4.25136403 15.8393606,2.31998352 C19.1888987,0.388603015 24.6191402,0.388603015 27.9686783,2.31998352 C31.3189896,4.25136403 31.3189896,7.38358288 27.9694515,9.31496339" id="Fill-123" fill="#FFC281"></path>
                    <path d="M33.7798022,22.0441587 L30.4495943,5.43629416 C30.6351643,6.82555987 29.8116975,8.25189325 27.968369,9.31450004 C24.6188309,11.2466528 19.1885894,11.2466528 15.8390513,9.31450004 C13.9988157,8.25420998 13.1761222,6.83019333 13.3578261,5.44247211 L10.1745278,21.5120831 C10.1281353,21.6889268 10.0910213,21.8657705 10.0685982,22.0441587 C9.83199651,23.9562331 10.9709322,25.9146421 13.5062821,27.3764987 C18.1439851,30.0507773 25.6634353,30.0507773 30.3011383,27.3764987 C32.8364881,25.9146421 33.9754239,23.9562331 33.7388221,22.0441587 L33.7798022,22.0441587 Z" id="Fill-125" fill="#FFDCC0"></path>
                </g>
            </g>
            <g id="Group-11" transform="translate(0.000000, 357.000000)">
                <g id="Group-10" transform="translate(0.000000, 43.083333)">
                    <polygon id="Fill-1" fill="#453560" opacity="0.099999994" points="18.3458647 166.720051 92.5280271 209.916667 277.022556 102.779949 202.839623 59.5833333"></polygon>
                    <path d="M40.2793425,153.760711 C39.4475755,155.110825 39.3849028,156.629317 40.1408436,157.152989 C40.542413,157.431817 41.0940873,157.372344 41.6473091,157.053352 C42.135537,156.772207 42.6253123,156.289472 43.0145019,155.656895 L60.1953264,127.774102 C60.6054069,127.109086 60.8468128,126.366832 60.8622875,125.719581 C60.8769885,125.073101 60.6657584,124.576463 60.2773425,124.345523 L47.6422214,116.843429 L42.0898865,120.04493 C42.1835086,120.210991 42.3003429,120.354653 42.4581852,120.448111 L55.8910289,128.424443 L40.2793425,153.760711 Z" id="Fill-2" fill="#E0BDCD"></path>
                    <path d="M30.6979282,170.24423 C29.0545113,168.605247 28.082698,165.977622 28.082698,162.525872 C28.082698,153.890702 34.1557577,143.391015 41.6470769,139.074203 C44.5648382,137.391967 47.2659532,136.901507 49.4780666,137.432903 C50.7222353,137.732585 51.8116566,138.356665 52.6968115,139.27811 L58.0379163,142.339038 L55.1836014,147.524002 C54.9205309,155.439317 49.7604805,164.720966 43.1566373,169.370673 L39.6121493,175.808431 L33.1970979,171.804431 C32.2531391,171.480805 31.4120872,170.957134 30.6979282,170.24423 Z" id="Fill-4" fill="#D8B4C6"></path>
                    <path d="M35.9142292,167.216592 C35.9142292,175.851761 41.987289,179.3514 49.4778345,175.033815 C56.9691537,170.71623 63.0422134,160.216543 63.0422134,151.581373 C63.0422134,142.946976 56.9691537,139.446565 49.4778345,143.76415 C41.987289,148.081735 35.9142292,158.581422 35.9142292,167.216592" id="Fill-6" fill="#F2D1CF"></path>
                    <path d="M41.7554001,163.84988 C41.7554001,168.766056 45.2132296,170.758788 49.4780666,168.301086 C53.7436773,165.842611 57.2007331,159.864417 57.2007331,154.94824 C57.2007331,150.032063 53.7436773,148.039332 49.4780666,150.497034 C45.2132296,152.955508 41.7554001,158.933703 41.7554001,163.84988" id="Fill-8" fill="#E0BDCD"></path>
                    <path d="M49.4788403,161.743918 C49.9670682,161.462773 50.4568436,160.979265 50.8460332,160.346689 L68.0268577,132.464668 C68.4369382,131.798879 68.6775703,131.057398 68.6930451,130.410146 C68.7085198,129.763667 68.4972897,129.267029 68.1081001,129.036088 L53.1873606,120.176157 C52.3989228,119.708869 51.1114249,120.439537 50.3106073,121.809733 C49.5097898,123.179929 49.500505,124.669844 50.2897165,125.138676 L63.7225602,133.115009 L48.1101,158.451276 C47.278333,159.800618 47.2164341,161.319883 47.9723749,161.843554 C48.3731705,162.122382 48.9256186,162.062909 49.4788403,161.743918" id="Fill-10" fill="#FFE6DB"></path>
                    <polygon id="Fill-12" fill="#10768E" points="256.863656 70.8776792 256.863656 60.7139763 182.46732 18.1938752 182.46732 28.3568058"></polygon>
                    <path d="M96.995639,185.752084 C96.163872,187.102198 96.1011993,188.62069 96.8571401,189.144362 C97.2587095,189.42319 97.8103838,189.363717 98.3636056,189.044725 C98.8518335,188.76358 99.3416088,188.280845 99.7307984,187.648268 L116.911623,159.765475 C117.321703,159.100459 117.563109,158.358205 117.578584,157.710954 C117.593285,157.064474 117.382055,156.567836 116.993639,156.336896 L104.358518,148.834802 L98.806183,152.036303 C98.8998052,152.202364 99.0166394,152.346026 99.1744817,152.439484 L112.607325,160.415816 L96.995639,185.752084 Z" id="Fill-14" fill="#E0BDCD"></path>
                    <path d="M233.745253,90.6754665 L219.055861,83.4197613 C218.860106,83.3232142 218.710774,83.1641046 218.603999,82.9648315 L224.364469,79.6420676 L238.137757,86.4443878 C238.555575,86.6506123 238.790791,87.1426162 238.788469,87.800681 C238.784601,88.4595182 238.542421,89.224171 238.120735,89.9084966 L220.93991,117.790517 C220.55072,118.423866 220.060945,118.906602 219.573491,119.187747 C219.019495,119.506738 218.467821,119.566211 218.066252,119.287383 C217.310311,118.763712 217.372984,117.244447 218.204751,115.895105 L233.745253,90.6754665 Z" id="Fill-16" fill="#E0BDCD"></path>
                    <polygon id="Fill-18" fill="#1D8CAA" points="182.858831 18.4213401 1.17460976 123.174909 1.17460976 133.104582 182.858831 28.351013"></polygon>
                    <polygon id="Fill-20" fill="#FFE6DB" points="236.382303 54.6012339 236.382303 78.0714399 245.418001 73.3807971 245.418001 49.9105911"></polygon>
                    <polygon id="Fill-22" fill="#FFE6DB" points="85.9434285 141.375112 85.9434285 164.844546 94.0754018 160.153903 94.0754018 136.68447"></polygon>
                    <polygon id="Fill-24" fill="#FFC281" points="71.1041635 155.059153 267.435995 41.6704147 196.331909 0.690432485 7.7373675e-05 114.079171"></polygon>
                    <polygon id="Fill-26" fill="#FFDCC0" points="71.1041635 158.335729 71.1041635 155.059308 7.7373675e-05 114.079325 7.7373675e-05 117.355747"></polygon>
                    <polygon id="Fill-28" fill="#E2A66F" points="267.436073 41.6703375 71.1042409 155.059076 71.1042409 158.335497 267.436073 44.9467588"></polygon>
                    <polygon id="Fill-30" fill="#1EB59C" points="257.163634 60.9287742 75.1010554 165.682343 75.1010554 175.612016 257.163634 70.8584471"></polygon>
                    <polygon id="Fill-32" fill="#5FEDCB" points="73.1170397 141.071568 249.90196 39.1835167 191.57691 5.56891721 14.7919897 107.456969"></polygon>
                    <polygon id="Fill-34" fill="#43DCBC" points="73.1170397 148.889564 73.1170397 141.071568 14.7919897 107.456197 14.7919897 115.274964"></polygon>
                    <polygon id="Fill-36" fill="#43DCBC" points="75.1795124 175.775682 75.1795124 165.611979 1.17468713 123.091878 1.17468713 133.254809"></polygon>
                    <polygon id="Fill-38" fill="#1EB59C" points="249.902269 39.1838257 73.1173492 141.071877 73.1173492 148.889873 249.902269 47.0018211"></polygon>
                    <path d="M87.4146116,202.235603 C85.7711947,200.59662 84.7993814,197.968995 84.7993814,194.517245 C84.7993814,185.882075 90.8724411,175.382388 98.3629866,171.065576 C101.281522,169.38334 103.981863,168.89288 106.193976,169.424276 C107.438919,169.723958 108.527566,170.348038 109.412721,171.269483 L114.7546,174.330411 L111.900285,179.515375 C111.636441,187.43069 106.477164,196.712339 99.872547,201.362046 L96.3288327,207.799804 L89.9137813,203.795804 C88.9698225,203.472178 88.1287706,202.948507 87.4146116,202.235603 Z" id="Fill-40" fill="#D8B4C6"></path>
                    <path d="M92.6305258,199.207965 C92.6305258,207.843134 98.7035855,211.342773 106.194131,207.025188 C113.68545,202.707603 119.75851,192.207916 119.75851,183.572746 C119.75851,174.938349 113.68545,171.437938 106.194131,175.755523 C98.7035855,180.073108 92.6305258,190.572795 92.6305258,199.207965" id="Fill-42" fill="#F2D1CF"></path>
                    <path d="M98.4716966,195.841253 C98.4716966,200.757429 101.929526,202.750161 106.194363,200.292459 C110.459974,197.833984 113.91703,191.85579 113.91703,186.939613 C113.91703,182.023436 110.459974,180.030705 106.194363,182.488407 C101.929526,184.946881 98.4716966,190.925076 98.4716966,195.841253" id="Fill-44" fill="#E0BDCD"></path>
                    <path d="M106.195059,193.735368 C106.683287,193.454223 107.173063,192.970715 107.562252,192.338139 L124.743077,164.456118 C125.153157,163.790329 125.393789,163.048848 125.409264,162.401596 C125.424739,161.755117 125.213509,161.258479 124.824319,161.027538 L109.90358,152.167607 C109.115142,151.700319 107.827644,152.430987 107.026826,153.801183 C106.226009,155.171379 106.216724,156.661294 107.005936,157.130126 L120.438779,165.106459 L104.826319,190.442727 C103.994552,191.792069 103.932653,193.311333 104.688594,193.835004 C105.08939,194.113832 105.641838,194.054359 106.195059,193.735368" id="Fill-46" fill="#FFE6DB"></path>
                    <path d="M208.994034,131.540133 C207.350617,129.90115 206.378803,127.273525 206.378803,123.821774 C206.378803,115.187377 212.451863,104.686918 219.943182,100.370105 C222.860944,98.6878691 225.561285,98.19741 227.774172,98.7295774 C229.018341,99.0284871 230.107762,99.6525674 230.992917,100.574013 L236.334022,103.635713 L233.479707,108.819905 C233.216636,116.735219 228.056586,126.016868 221.452743,130.667347 L217.908255,137.104334 L211.493203,133.100334 C210.549244,132.776708 209.708193,132.253036 208.994034,131.540133 Z" id="Fill-48" fill="#D8B4C6"></path>
                    <path d="M214.707074,128.850795 C214.707074,137.485965 220.780133,140.985603 228.271453,136.668018 C235.761998,132.350433 241.835832,121.850746 241.835832,113.215577 C241.835832,104.581179 235.761998,101.080769 228.271453,105.398354 C220.780133,109.715939 214.707074,120.215625 214.707074,128.850795" id="Fill-50" fill="#F2D1CF"></path>
                    <path d="M220.548322,125.484083 C220.548322,130.40026 224.006151,132.392991 228.270988,129.935289 C232.536599,127.476814 235.993655,121.49862 235.993655,116.582443 C235.993655,111.666267 232.536599,109.673535 228.270988,112.131237 C224.006151,114.589712 220.548322,120.567906 220.548322,125.484083" id="Fill-52" fill="#E0BDCD"></path>
                    <path d="M225.897551,123.977794 C225.14161,123.454123 225.204283,121.934858 226.03605,120.585516 L241.576552,95.3658775 L226.88716,88.1109447 C226.063131,87.7046746 226.015159,86.2479725 226.780385,84.8584671 C227.544063,83.4689617 228.832334,82.6718691 229.65559,83.0781391 L245.968282,91.1347988 C246.3861,91.3410234 246.62209,91.8330272 246.618995,92.4918644 C246.6159,93.1499292 246.374494,93.914582 245.952034,94.5989076 L228.771209,122.480928 C228.381246,123.113505 227.892244,123.597013 227.404016,123.878158 C226.850021,124.197149 226.29912,124.256622 225.897551,123.977794" id="Fill-54" fill="#FFE6DB"></path>
                </g>
                <g id="Group-7" transform="translate(270.601504, 0.000000)">
                    <polygon id="Fill-3" fill="#EDEBF0" points="49.3621761 175.083333 95.3984962 201.903222 69.8859442 216.333333 23.8496241 189.545286"></polygon>
                    <polygon id="Stroke-63" stroke="#715C93" points="35.0647866 20.4717128 35.9921595 29.8184823 39.3574548 22.0291006"></polygon>
                    <path d="M33.6828622,58.3945549 C30.9382625,65.6767475 30.3004387,73.6061556 30.848543,81.3230816 C31.1617455,85.7339167 32.415371,115.952777 32.1494752,120.382337 C31.9080483,124.387746 28.6854885,126.173084 27.1602577,129.556515 C25.7182213,132.755144 26.0893336,136.507366 26.1023837,139.917663 C26.1097244,141.904085 26.1309308,144.005297 25.5224698,145.922521 C24.583678,148.882616 22.1824591,148.844353 19.5969075,148.041643 C13.8728061,146.263632 5.76379845,141.725796 0.652236283,147.284523 C-0.352621637,148.377869 1.27864122,150.015039 2.2875773,148.916808 C5.27034143,145.673404 10.2114366,147.107047 13.8385496,148.364843 C16.9477366,149.443536 20.8627675,151.807704 24.2680287,150.638646 C31.2865371,148.229701 27.146392,135.998549 29.104723,130.913633 C30.3061481,127.79153 33.386788,125.95816 34.1706098,122.569844 C35.0955359,118.564434 33.9226579,88.5499149 33.4634574,84.5567171 C32.4798059,75.9939332 32.8484713,67.1380706 35.9119829,59.008392 C36.4372496,57.616268 34.2024195,57.0154566 33.6828622,58.3945549" id="Fill-65" fill="#E5CAD8"></path>
                    <path d="M42.4038382,31.1576893 L33.1741529,25.7878355 C32.1187259,25.1796971 31.1195774,25.1593444 30.3863247,25.594892 L26.0137246,27.8914895 L29.1930559,34.8228017 L29.1930559,41.1239946 C29.1930559,46.5093165 33.0885116,52.7274704 37.7612641,55.4205384 L37.8827932,55.3912305 C38.2131239,55.5809176 38.5361139,55.7421109 38.8533946,55.8878362 L39.8484649,58.0549906 L42.8369385,56.4634102 C43.4372432,56.3111721 43.9682193,56.0294909 44.4200791,55.6199948 L44.4559668,55.6004562 L44.4559668,55.5858022 C45.4844781,54.6267835 46.0904922,53.0132222 46.0904922,50.7972213 L46.0904922,37.7837111 C46.0904922,35.3641833 44.5024578,32.3674532 42.4038382,31.1576893" id="Fill-67" fill="#715C93"></path>
                    <path d="M33.6995827,57.3752922 L33.7273142,57.4037859 C29.0553773,54.7123462 25.3099978,48.4941923 25.3099978,43.1088704 L25.3099978,30.0945462 C25.3099978,27.6758324 27.1451685,26.5621332 29.2437882,27.7727112 L38.2426497,33.1417509 C40.3429007,34.352329 41.6984801,37.348245 41.6984801,39.7677728 L41.6984801,52.7812829 C41.6984801,58.1674189 38.3723351,60.0683601 33.6995827,57.3752922" id="Fill-69" fill="#A85A7D"></path>
                    <path d="M33.6421622,53.0638597 L33.5654929,53.0833983 C30.3355924,51.2223483 27.6505338,46.9238601 27.6505338,43.200946 L27.6505338,34.2042428 C27.6505338,32.5312516 28.9229188,31.7627341 30.3739271,32.5980085 L36.7815276,36.3111533 C38.2325359,37.1472418 39.3572917,39.2183316 39.3572917,40.8913227 L39.3572917,49.8880259 C39.3572917,53.61094 36.8720627,54.9249097 33.6421622,53.0638597" id="Fill-71" fill="#E0BDCD"></path>
                    <path d="M74.6993355,209.727065 C74.6993355,207.103196 72.8543772,203.914336 70.5779499,202.602809 C68.3023382,201.292096 66.4581956,202.354506 66.4581956,204.977561 C66.4581956,205.253543 66.4826645,205.537667 66.5218148,205.822605 L65.3040771,206.44214 L69.5151822,215.22799 L73.6569586,212.275222 C74.3037543,211.809552 74.6993355,210.936829 74.6993355,209.727065" id="Fill-73" fill="#A85A7D"></path>
                    <path d="M70.6020926,212.648001 C70.6020926,215.271056 68.7563187,216.333467 66.480707,215.022753 C64.2050953,213.711226 62.3609527,210.521552 62.3609527,207.898498 C62.3609527,205.275443 64.2050953,204.213032 66.480707,205.523746 C68.7563187,206.835273 70.6020926,210.024947 70.6020926,212.648001" id="Fill-75" fill="#E885AD"></path>
                    <path d="M36.0676054,187.525943 C36.0676054,184.902888 34.2218315,181.713215 31.9462198,180.401687 C29.6706081,179.090974 27.8264655,180.153385 27.8264655,182.776439 C27.8264655,183.052422 27.8509344,183.336545 27.8900847,183.621483 L26.672347,184.241019 L30.8834521,193.026868 L35.0252285,190.074914 C35.6720242,189.60843 36.0676054,188.735707 36.0676054,187.525943" id="Fill-77" fill="#A85A7D"></path>
                    <path d="M31.9702809,190.44688 C31.9702809,193.069935 30.124507,194.133159 27.8488953,192.821632 C25.5732836,191.510104 23.729141,188.321245 23.729141,185.697376 C23.729141,183.074321 25.5732836,182.011911 27.8488953,183.323438 C30.124507,184.634151 31.9702809,187.823825 31.9702809,190.44688" id="Fill-79" fill="#E885AD"></path>
                    <polygon id="Fill-81" fill="#E0BDCD" points="69.3452046 33.4927127 74.8229853 30.2118591 81.7827682 34.2221531 81.7827682 26.0444422 37.0135747 0.244557926 24.5760111 7.69364256 46.9610157 28.2604431 47.6967152 172.30783 37.0135747 166.151548 24.5760111 173.600632 69.3452046 199.398889 74.8229853 196.118849 81.7827682 200.129143 81.7827682 191.950618 62.9147664 181.077397 62.9147664 32.1583904"></polygon>
                    <polygon id="Fill-83" fill="#FFE6DB" points="69.3452046 41.6711564 69.3452046 33.4926313 24.5760111 7.69356115 24.5760111 15.8729003 43.4538005 26.7510062 43.4538005 184.478657 24.5760111 173.600551 24.5760111 181.779076 69.3452046 207.578146 69.3452046 199.398807 50.4772027 188.5264 50.4772027 30.7987492"></polygon>
                    <polygon id="Fill-85" fill="#F2D1CF" points="69.3452046 33.4927127 81.7827682 26.0444422 81.7827682 34.4216095 69.3452046 41.86988"></polygon>
                    <polygon id="Fill-87" fill="#ECECEC" points="81.7827682 26.0441166 69.3452046 33.4923871 24.5760111 7.69331692 37.0135747 0.245046391"></polygon>
                    <polygon id="Fill-89" fill="#F2D1CF" points="69.3452046 199.398889 81.7827682 191.950618 81.7827682 200.129143 69.3452046 207.578228"></polygon>
                </g>
            </g>
        </g>
    </g>
</svg>